<?xml version="1.0" encoding="UTF-8" standalone="no"?>
<!-- Created with Inkscape (http://www.inkscape.org/) -->

<svg
   xmlns:dc="http://purl.org/dc/elements/1.1/"
   xmlns:cc="http://creativecommons.org/ns#"
   xmlns:rdf="http://www.w3.org/1999/02/22-rdf-syntax-ns#"
   xmlns:svg="http://www.w3.org/2000/svg"
   xmlns="http://www.w3.org/2000/svg"
   xmlns:sodipodi="http://sodipodi.sourceforge.net/DTD/sodipodi-0.dtd"
   xmlns:inkscape="http://www.inkscape.org/namespaces/inkscape"
   width="512"
   height="512"
   viewBox="0 0 512.00001 512.00001"
   id="svg2"
   version="1.1"
   inkscape:version="0.91 r13725"
   sodipodi:docname="rainbowicon.svg">
  <defs
     id="defs4">
    <clipPath
       clipPathUnits="userSpaceOnUse"
       id="clipPath3441">
      <rect
         style="fill:none;fill-rule:evenodd;stroke:#000000;stroke-width:0.02751388px;stroke-linecap:butt;stroke-linejoin:miter;stroke-opacity:1"
         id="rect3443"
         width="7.0435538"
         height="7.0435538"
         x="-21.458904"
         y="18.775471"
         transform="matrix(0.79999999,0.60000001,-0.79999999,0.60000001,0,0)" />
    </clipPath>
  </defs>
  <sodipodi:namedview
     id="base"
     pagecolor="#ffffff"
     bordercolor="#666666"
     borderopacity="1.0"
     inkscape:pageopacity="0.0"
     inkscape:pageshadow="2"
     inkscape:zoom="0.35"
     inkscape:cx="325"
     inkscape:cy="517.14286"
     inkscape:document-units="px"
     inkscape:current-layer="g3425"
     showgrid="false"
     units="px"
     inkscape:window-width="1680"
     inkscape:window-height="988"
     inkscape:window-x="-8"
     inkscape:window-y="-8"
     inkscape:window-maximized="1" />
  <metadata
     id="metadata7">
    <rdf:RDF>
      <cc:Work
         rdf:about="">
        <dc:format>image/svg+xml</dc:format>
        <dc:type
           rdf:resource="http://purl.org/dc/dcmitype/StillImage" />
        <dc:title></dc:title>
      </cc:Work>
    </rdf:RDF>
  </metadata>
  <g
     inkscape:label="Layer 1"
     inkscape:groupmode="layer"
     id="layer1"
     transform="translate(0,-540.36216)">
    <g
       transform="matrix(0.51322441,0,0,0.51258583,1.4285736,1030.1124)"
       id="g3363">
      <path
         style="fill:#ff0000;fill-opacity:1"
         d="M 0,0.5 0,0 0.5,0 1,0 1.5,0 2,0 2.5,0 3,0 3.5,0 4,0 4.5,0 5,0 5.5,0 6,0 6.5,0 7,0 7.5,0 8,0 8.5,0 9,0 9.5,0 10,0 10.5,0 11,0 11.5,0 12,0 12.5,0 13,0 13.5,0 14,0 14.5,0 15,0 15.5,0 16,0 16,0.5 16,1 16,1.5 16,2 15.5,2 Q 15,2 14.5,2 14,2 13.5,2 13,2 12.5,2 12,2 11.5,2 11,2 10.5,2 10,2 9.5,2 9,2 8.5,2 8,2 7.5,2 7,2 6.5,2 6,2 5.5,2 5,2 4.5,2 4,2 3.5,2 3,2 2.5,2 2,2 1.5,2 1,2 0.5,2 L 0,2 0,1.5 0,1 0,0.5"
         id="path3365"
         inkscape:connector-curvature="0" />
      <path
         style="fill:#ff9100;fill-opacity:1"
         d="M 0,2.5 0,2 0.5,2 q 0.5,0 1,0 0.5,0 1,0 0.5,0 1,0 0.5,0 1,0 0.5,0 1,0 0.5,0 1,0 0.5,0 1,0 0.5,0 1,0 0.5,0 1,0 0.5,0 1,0 0.5,0 1,0 0.5,0 1,0 0.5,0 1,0 0.5,0 1,0 0.5,0 1,0 L 16,2 16,2.5 16,3 16,3.5 16,4 15.5,4 Q 15,4 14.5,4 14,4 13.5,4 13,4 12.5,4 12,4 11.5,4 11,4 10.5,4 10,4 9.5,4 9,4 8.5,4 8,4 7.5,4 7,4 6.5,4 6,4 5.5,4 5,4 4.5,4 4,4 3.5,4 3,4 2.5,4 2,4 1.5,4 1,4 0.5,4 L 0,4 0,3.5 0,3 0,2.5"
         id="path3367"
         inkscape:connector-curvature="0" />
      <path
         style="fill:#e6ff00;fill-opacity:1"
         d="M 0,4.5 0,4 0.5,4 q 0.5,0 1,0 0.5,0 1,0 0.5,0 1,0 0.5,0 1,0 0.5,0 1,0 0.5,0 1,0 0.5,0 1,0 0.5,0 1,0 0.5,0 1,0 0.5,0 1,0 0.5,0 1,0 0.5,0 1,0 0.5,0 1,0 0.5,0 1,0 0.5,0 1,0 L 16,4 16,4.5 16,5 16,5.5 16,6 15.5,6 Q 15,6 14.5,6 14,6 13.5,6 13,6 12.5,6 12,6 11.5,6 11,6 10.5,6 10,6 9.5,6 9,6 8.5,6 8,6 7.5,6 7,6 6.5,6 6,6 5.5,6 5,6 4.5,6 4,6 3.5,6 3,6 2.5,6 2,6 1.5,6 1,6 0.5,6 L 0,6 0,5.5 0,5 0,4.5"
         id="path3369"
         inkscape:connector-curvature="0" />
      <path
         style="fill:#33ff00;fill-opacity:1"
         d="M 0,6.5 0,6 0.5,6 q 0.5,0 1,0 0.5,0 1,0 0.5,0 1,0 0.5,0 1,0 0.5,0 1,0 0.5,0 1,0 0.5,0 1,0 0.5,0 1,0 0.5,0 1,0 0.5,0 1,0 0.5,0 1,0 0.5,0 1,0 0.5,0 1,0 0.5,0 1,0 0.5,0 1,0 L 16,6 16,6.5 16,7 16,7.5 16,8 15.5,8 Q 15,8 14.5,8 14,8 13.5,8 13,8 12.5,8 12,8 11.5,8 11,8 10.5,8 10,8 9.5,8 9,8 8.5,8 8,8 7.5,8 7,8 6.5,8 6,8 5.5,8 5,8 4.5,8 4,8 3.5,8 3,8 2.5,8 2,8 1.5,8 1,8 0.5,8 L 0,8 0,7.5 0,7 0,6.5"
         id="path3371"
         inkscape:connector-curvature="0" />
      <path
         style="fill:#0055ff;fill-opacity:1"
         d="M 0,8.5 0,8 0.5,8 q 0.5,0 1,0 0.5,0 1,0 0.5,0 1,0 0.5,0 1,0 0.5,0 1,0 0.5,0 1,0 0.5,0 1,0 0.5,0 1,0 0.5,0 1,0 0.5,0 1,0 0.5,0 1,0 0.5,0 1,0 0.5,0 1,0 0.5,0 1,0 0.5,0 1,0 l 0.5,0 0,0.5 0,0.5 0,0.5 0,0.5 -0.5,0 q -0.5,0 -1,0 -0.5,0 -1,0 -0.5,0 -1,0 -0.5,0 -1,0 -0.5,0 -1,0 -0.5,0 -1,0 -0.5,0 -1,0 -0.5,0 -1,0 -0.5,0 -1,0 -0.5,0 -1,0 -0.5,0 -1,0 -0.5,0 -1,0 -0.5,0 -1,0 -0.5,0 -1,0 -0.5,0 -1,0 L 0,10 0,9.5 0,9 0,8.5"
         id="path3373"
         inkscape:connector-curvature="0" />
      <path
         style="fill:#cd00ff;fill-opacity:1"
         d="M 0,10.5 0,10 0.5,10 q 0.5,0 1,0 0.5,0 1,0 0.5,0 1,0 0.5,0 1,0 0.5,0 1,0 0.5,0 1,0 0.5,0 1,0 0.5,0 1,0 0.5,0 1,0 0.5,0 1,0 0.5,0 1,0 0.5,0 1,0 0.5,0 1,0 0.5,0 1,0 0.5,0 1,0 l 0.5,0 0,0.5 0,0.5 0,0.5 0,0.5 -0.5,0 q -0.5,0 -1,0 -0.5,0 -1,0 -0.5,0 -1,0 -0.5,0 -1,0 -0.5,0 -1,0 -0.5,0 -1,0 -0.5,0 -1,0 -0.5,0 -1,0 -0.5,0 -1,0 -0.5,0 -1,0 -0.5,0 -1,0 -0.5,0 -1,0 -0.5,0 -1,0 -0.5,0 -1,0 -0.5,0 -1,0 L 0,12 0,11.5 0,11 0,10.5"
         id="path3375"
         inkscape:connector-curvature="0" />
      <path
         style="fill:#000000;fill-opacity:0"
         d="M 0,12.5 0,12 0.5,12 q 0.5,0 1,0 0.5,0 1,0 0.5,0 1,0 0.5,0 1,0 0.5,0 1,0 0.5,0 1,0 0.5,0 1,0 0.5,0 1,0 0.5,0 1,0 0.5,0 1,0 0.5,0 1,0 0.5,0 1,0 0.5,0 1,0 0.5,0 1,0 0.5,0 1,0 l 0.5,0 0,0.5 0,0.5 0,0.5 0,0.5 0,0.5 0,0.5 0,0.5 0,0.5 -0.5,0 L 15,16 14.5,16 14,16 13.5,16 13,16 12.5,16 12,16 11.5,16 11,16 10.5,16 10,16 9.5,16 9,16 8.5,16 8,16 7.5,16 7,16 6.5,16 6,16 5.5,16 5,16 4.5,16 4,16 3.5,16 3,16 2.5,16 2,16 1.5,16 1,16 0.5,16 0,16 0,15.5 0,15 0,14.5 0,14 0,13.5 0,13 0,12.5"
         id="path3377"
         inkscape:connector-curvature="0" />
    </g>
    <g
       transform="matrix(32,0,0,32,7.1428629,122.93359)"
       id="g3379">
      <path
         style="fill:#000000;fill-opacity:0"
         d="M 0,12.5 0,12 0.5,12 q 0.5,0 1,0 0.5,0 1,0 0.5,0 1,0 0.5,0 1,0 0.5,0 1,0 0.5,0 1,0 0.5,0 1,0 0.5,0 1,0 0.5,0 1,0 0.5,0 1,0 0.5,0 1,0 0.5,0 1,0 0.5,0 1,0 0.5,0 1,0 0.5,0 1,0 l 0.5,0 0,0.5 0,0.5 0,0.5 0,0.5 0,0.5 0,0.5 0,0.5 0,0.5 -0.5,0 L 15,16 14.5,16 14,16 13.5,16 13,16 12.5,16 12,16 11.5,16 11,16 10.5,16 10,16 9.5,16 9,16 8.5,16 8,16 7.5,16 7,16 6.5,16 6,16 5.5,16 5,16 4.5,16 4,16 3.5,16 3,16 2.5,16 2,16 1.5,16 1,16 0.5,16 0,16 0,15.5 0,15 0,14.5 0,14 0,13.5 0,13 0,12.5"
         id="path3393"
         inkscape:connector-curvature="0" />
      <g
         id="g3425"
         transform="matrix(1.4142136,-1.4142136,1.8856181,1.8856181,48.363874,-29.408269)"
         clip-path="url(#clipPath3441)">
        <path
           inkscape:connector-curvature="0"
           id="path3381"
           d="m -40.1875,-2.8839286 0,-0.5 0.5,0 0.5,0 0.5,0 0.5,0 0.5,0 0.5,0 0.5,0 0.5,0 0.5,0 0.5,0 0.5,0 0.5,0 0.5,0 0.5,0 0.5,0 0.5,0 0.5,0 0.5,0 0.5,0 0.5,0 0.5,0 0.5,0 0.5,0 0.5,0 0.5,0 0.5,0 0.5,0 0.5,0 0.5,0 0.5,0 0.5,0 0.5,0 0,0.5 0,0.5 0,0.5 0,0.5 -0.5,0 q -0.5,0 -1,0 -0.5,0 -1,0 -0.5,0 -1,0 -0.5,0 -1,0 -0.5,0 -1,0 -0.5,0 -1,0 -0.5,0 -1,0 -0.5,0 -1,0 -0.5,0 -1,0 -0.5,0 -1,0 -0.5,0 -1,0 -0.5,0 -1,0 -0.5,0 -1,0 -0.5,0 -1,0 -0.5,0 -1,0 l -0.5,0 0,-0.5 0,-0.5 0,-0.5"
           style="fill:#ff0000;fill-opacity:1" />
        <path
           inkscape:connector-curvature="0"
           id="path3383"
           d="m -40.1875,-0.88392862 0,-0.49999998 0.5,0 q 0.5,0 1,0 0.5,0 1,0 0.5,0 1,0 0.5,0 1,0 0.5,0 1,0 0.5,0 1,0 0.5,0 1,0 0.5,0 1,0 0.5,0 1,0 0.5,0 1,0 0.5,0 1,0 0.5,0 1,0 0.5,0 1,0 0.5,0 1,0 0.5,0 1,0 l 0.5,0 0,0.49999998 0,0.5 0,0.5 0,0.5 -0.5,0 q -0.5,0 -1,0 -0.5,0 -1,0 -0.5,0 -1,0 -0.5,0 -1,0 -0.5,0 -1,0 -0.5,0 -1,0 -0.5,0 -1,0 -0.5,0 -1,0 -0.5,0 -1,0 -0.5,0 -1,0 -0.5,0 -1,0 -0.5,0 -1,0 -0.5,0 -1,0 -0.5,0 -1,0 -0.5,0 -1,0 l -0.5,0 0,-0.5 0,-0.5 0,-0.5"
           style="fill:#ff9100;fill-opacity:1" />
        <path
           inkscape:connector-curvature="0"
           id="path3385"
           d="m -40.1875,1.1160714 0,-0.50000002 0.5,0 q 0.5,0 1,0 0.5,0 1,0 0.5,0 1,0 0.5,0 1,0 0.5,0 1,0 0.5,0 1,0 0.5,0 1,0 0.5,0 1,0 0.5,0 1,0 0.5,0 1,0 0.5,0 1,0 0.5,0 1,0 0.5,0 1,0 0.5,0 1,0 0.5,0 1,0 l 0.5,0 0,0.50000002 0,0.5 0,0.5 0,0.5 -0.5,0 q -0.5,0 -1,0 -0.5,0 -1,0 -0.5,0 -1,0 -0.5,0 -1,0 -0.5,0 -1,0 -0.5,0 -1,0 -0.5,0 -1,0 -0.5,0 -1,0 -0.5,0 -1,0 -0.5,0 -1,0 -0.5,0 -1,0 -0.5,0 -1,0 -0.5,0 -1,0 -0.5,0 -1,0 -0.5,0 -1,0 l -0.5,0 0,-0.5 0,-0.5 0,-0.5"
           style="fill:#e6ff00;fill-opacity:1" />
        <path
           inkscape:connector-curvature="0"
           id="path3387"
           d="m -40.1875,3.1160714 0,-0.5 0.5,0 q 0.5,0 1,0 0.5,0 1,0 0.5,0 1,0 0.5,0 1,0 0.5,0 1,0 0.5,0 1,0 0.5,0 1,0 0.5,0 1,0 0.5,0 1,0 0.5,0 1,0 0.5,0 1,0 0.5,0 1,0 0.5,0 1,0 0.5,0 1,0 0.5,0 1,0 l 0.5,0 0,0.5 0,0.5 0,0.5 0,0.5 -0.5,0 q -0.5,0 -1,0 -0.5,0 -1,0 -0.5,0 -1,0 -0.5,0 -1,0 -0.5,0 -1,0 -0.5,0 -1,0 -0.5,0 -1,0 -0.5,0 -1,0 -0.5,0 -1,0 -0.5,0 -1,0 -0.5,0 -1,0 -0.5,0 -1,0 -0.5,0 -1,0 -0.5,0 -1,0 -0.5,0 -1,0 l -0.5,0 0,-0.5 0,-0.5 0,-0.5"
           style="fill:#33ff00;fill-opacity:1" />
        <path
           inkscape:connector-curvature="0"
           id="path3389"
           d="m -40.1875,5.1160714 0,-0.5 0.5,0 q 0.5,0 1,0 0.5,0 1,0 0.5,0 1,0 0.5,0 1,0 0.5,0 1,0 0.5,0 1,0 0.5,0 1,0 0.5,0 1,0 0.5,0 1,0 0.5,0 1,0 0.5,0 1,0 0.5,0 1,0 0.5,0 1,0 0.5,0 1,0 0.5,0 1,0 l 0.5,0 0,0.5 0,0.5 0,0.5 0,0.5 -0.5,0 q -0.5,0 -1,0 -0.5,0 -1,0 -0.5,0 -1,0 -0.5,0 -1,0 -0.5,0 -1,0 -0.5,0 -1,0 -0.5,0 -1,0 -0.5,0 -1,0 -0.5,0 -1,0 -0.5,0 -1,0 -0.5,0 -1,0 -0.5,0 -1,0 -0.5,0 -1,0 -0.5,0 -1,0 -0.5,0 -1,0 l -0.5,0 0,-0.5 0,-0.5 0,-0.5"
           style="fill:#0055ff;fill-opacity:1" />
        <path
           inkscape:connector-curvature="0"
           id="path3391"
           d="m -40.1875,7.1160714 0,-0.5 0.5,0 q 0.5,0 1,0 0.5,0 1,0 0.5,0 1,0 0.5,0 1,0 0.5,0 1,0 0.5,0 1,0 0.5,0 1,0 0.5,0 1,0 0.5,0 1,0 0.5,0 1,0 0.5,0 1,0 0.5,0 1,0 0.5,0 1,0 0.5,0 1,0 0.5,0 1,0 l 0.5,0 0,0.5 0,0.5 0,0.5 0,0.5 -0.5,0 q -0.5,0 -1,0 -0.5,0 -1,0 -0.5,0 -1,0 -0.5,0 -1,0 -0.5,0 -1,0 -0.5,0 -1,0 -0.5,0 -1,0 -0.5,0 -1,0 -0.5,0 -1,0 -0.5,0 -1,0 -0.5,0 -1,0 -0.5,0 -1,0 -0.5,0 -1,0 -0.5,0 -1,0 -0.5,0 -1,0 l -0.5,0 0,-0.5 0,-0.5 0,-0.5"
           style="fill:#cd00ff;fill-opacity:1" />
      </g>
    </g>
  </g>
</svg>
